<?xml version="1.0" standalone="no"?>
<!DOCTYPE svg PUBLIC "-//W3C//DTD SVG 20010904//EN"
 "http://www.w3.org/TR/2001/REC-SVG-20010904/DTD/svg10.dtd">
<svg width="512" height="512" viewBox="0 0 512 512" fill="none" xmlns="http://www.w3.org/2000/svg">
<circle cx="256" cy="256" r="256" fill="white"/>
<path d="M247.236 374.064L175.741 374.064C156.42 374.064 160.567 363.734 175.741 348.902C191.119 333.871 225.156 317.358 216.745 297.384C207.431 275.265 125.953 245.799 145.28 237.622C163.765 229.802 191.086 233.422 224.85 243.215C258.613 253.008 277.864 261.898 289.705 260.593C301.545 259.288 309.936 247.7 316.907 232.403C323.879 217.107 327.717 166.052 343.67 152.893C361.435 138.24 388.512 144.569 398.902 160.073C386.705 173.095 372.837 208.564 370.169 230.744C367.829 250.198 374.878 290.333 352.911 309.885C334.331 326.423 316.73 317.761 300.835 312.756C284.94 307.75 255.495 305.795 255.647 312.756C256.01 329.271 275.748 329.165 306.114 355.213C332.667 377.99 296.651 374.064 247.236 374.064Z" fill="black"/>
</svg>
